PathFileType	4	(X/Y/Z)	C:/Files/Users/Natalie/Patient 3 c3d/Trial11.L.Isolated.Hip.Joint.Labeled.trc																																																																																																	
DataRate	CameraRate	NumFrames	NumMarkers	Units	OrigDataRate	OrigDataStartFrame	OrigNumFrames																																																																																													
100	100	11	33	m	100	1	1763																																																																																													
Frame#	Time	L_Asis			L_Elbow			L_Heel			L_Midfoot_Lateral			L_Midfoot_Superior			L_Patella			L_Shank_Inferior			L_Shank_Lateral			L_Shank_Superior			L_Shoulder			L_Thigh_Inferior			L_Thigh_Lateral			L_Thigh_Superior			L_Toe			L_Wrist			Neck			R_Asis			R_Elbow			R_Heel			R_Midfoot_Lateral			R_Midfoot_Superior			R_Patella			R_Shank_Inferior			R_Shank_Lateral			R_Shank_Superior			R_Shoulder			R_Thigh_Inferior			R_Thigh_Lateral			R_Thigh_Superior			R_Toe			R_Wrist			Sacral			Sternum		
		X1	Y1	Z1	X2	Y2	Z2	X3	Y3	Z3	X4	Y4	Z4	X5	Y5	Z5	X6	Y6	Z6	X7	Y7	Z7	X8	Y8	Z8	X9	Y9	Z9	X10	Y10	Z10	X11	Y11	Z11	X12	Y12	Z12	X13	Y13	Z13	X14	Y14	Z14	X15	Y15	Z15	X16	Y16	Z16	X17	Y17	Z17	X18	Y18	Z18	X19	Y19	Z19	X20	Y20	Z20	X21	Y21	Z21	X22	Y22	Z22	X23	Y23	Z23	X24	Y24	Z24	X25	Y25	Z25	X26	Y26	Z26	X27	Y27	Z27	X28	Y28	Z28	X29	Y29	Z29	X30	Y30	Z30	X31	Y31	Z31	X32	Y32	Z32	X33	Y33	Z33
																																																																																																				
1	0	0.51478113	0.98914111	0.43089706	0.50915897	1.1667467	0.30177673	0.33551172	0.04266986	0.43680835	0.41922458	0.03775833	0.379323	0.50793015	0.10421768	0.4194151	0.53512988	0.51377399	0.44150958	0.46991196	0.24977042	0.41736929	0.40414859	0.354215	0.35598148	0.49285681	0.40481076	0.41139902	0.39006766	1.46011169	0.43275095	0.54725244	0.63216632	0.43354459	0.47522867	0.68516486	0.3705119	0.56808044	0.75991626	0.42621237	0.62925421	0.06125768	0.41960059	0.55986792	1.32087427	0.49549612	0.32396689	1.47649585	0.56431592	0.49674109	0.97700336	0.69661127	0.29749084	1.22351672	0.96996771	0.32034976	0.03592918	0.53849518	0.4003511	0.02973743	0.605703	0.49081656	0.09107694	0.56740051	0.51953412	0.49517841	0.6291239	0.45525232	0.21417502	0.5959024	0.40074756	0.34038882	0.67771765	0.486689	0.38497397	0.63314044	0.34701581	1.4528009	0.71431482	0.53166791	0.60193488	0.6480636	0.45304367	0.65797968	0.71572717	0.54614496	0.71439081	0.67499017	0.61565082	0.043316	0.57886975	0.50729584	1.28944421	1.11743652	0.33365836	0.99631744	0.5578548	0.47409866	1.3986698	0.5878006
2	0.01	0.51423474	0.98906946	0.43083496	0.50909808	1.16683203	0.3018634	0.33843793	0.04223326	0.43698328	0.42213596	0.03760319	0.37968365	0.51066461	0.10433894	0.41986157	0.5365061	0.51404834	0.44194022	0.47224612	0.24973959	0.41774878	0.40618109	0.35391119	0.35613043	0.49464047	0.40485663	0.41173856	0.38979474	1.4600752	0.43286758	0.54756982	0.63234503	0.433815	0.47598022	0.68515594	0.37070102	0.5681521	0.76010205	0.42660797	0.63211029	0.06183115	0.42016269	0.55965576	1.32096741	0.49560931	0.32372589	1.47643298	0.56445587	0.49681332	0.97686572	0.69646704	0.2974426	1.22352612	0.97015393	0.32034064	0.03590868	0.53852313	0.40033508	0.02974191	0.60569165	0.49082413	0.09106313	0.56738818	0.5202453	0.49499612	0.62917139	0.45542429	0.21407117	0.59596338	0.40123401	0.34041843	0.67781793	0.48721487	0.38484671	0.63318323	0.34681052	1.45275317	0.71446179	0.53227997	0.60183612	0.64826544	0.45342603	0.65784821	0.71576257	0.54646228	0.71439648	0.67499738	0.61565753	0.04331129	0.57880237	0.50730756	1.28957422	1.11753845	0.3334993	0.99634473	0.55836481	0.47379623	1.39864343	0.58791724
3	0.02	0.51358215	0.98899542	0.43078912	0.50899197	1.16690039	0.30196597	0.34206494	0.04171433	0.43739026	0.42583597	0.03754893	0.38002853	0.51406757	0.10456574	0.42019318	0.53807782	0.51441498	0.44225378	0.47500717	0.2497852	0.41810352	0.40847879	0.35345334	0.35643118	0.49673911	0.40496506	0.41199387	0.38950537	1.4600343	0.43303644	0.54801581	0.63262891	0.4340878	0.47672925	0.68514484	0.37091592	0.56815448	0.76036475	0.42703476	0.63568475	0.06251098	0.42065747	0.5594657	1.32105249	0.4956972	0.32349304	1.4763689	0.56463458	0.49731387	0.97677039	0.69650348	0.29741498	1.22349561	0.97036462	0.32035123	0.03595939	0.53854474	0.40031171	0.02974347	0.60570447	0.49083853	0.09105119	0.56738458	0.5209101	0.49480054	0.62926648	0.45559116	0.21398752	0.59604089	0.40170236	0.34046863	0.6779425	0.48771329	0.38470364	0.63324261	0.34663861	1.45270227	0.71468134	0.53274304	0.60174255	0.64848553	0.45365179	0.65777368	0.71574951	0.54671539	0.71437555	0.6750929	0.61568335	0.04327654	0.57876245	0.50729593	1.28970044	1.11762183	0.33334207	0.99637952	0.55883545	0.47366714	1.39868066	0.58805237
4	0.03	0.51287213	0.98897552	0.43070212	0.50882492	1.16702722	0.30204276	0.34654517	0.04114318	0.43786313	0.4302041	0.03747886	0.38039581	0.51810339	0.10490619	0.42056207	0.53992505	0.5149693	0.44240558	0.47825122	0.2498876	0.41843002	0.41112939	0.35315231	0.35670859	0.49911993	0.40516937	0.41223935	0.38916049	1.46001294	0.43323834	0.54858838	0.63300421	0.43435083	0.47743069	0.68519598	0.37108759	0.5681568	0.76075739	0.42746335	0.6399978	0.06357196	0.42087506	0.5592702	1.32112439	0.49578427	0.32327792	1.47634058	0.56480536	0.49759015	0.97672058	0.69646075	0.29743182	1.22341296	0.97058661	0.3203483	0.03593406	0.53856696	0.40030411	0.02976424	0.60572101	0.4908436	0.09107011	0.56737976	0.52159406	0.49463431	0.62936438	0.45574588	0.21392401	0.5960791	0.40216357	0.34054279	0.67805286	0.48819693	0.38461655	0.63326221	0.34649072	1.45268652	0.71492206	0.53320465	0.60168542	0.64880646	0.45382877	0.65768457	0.71572479	0.54694373	0.71431512	0.67524774	0.61567407	0.04327388	0.57871741	0.50730487	1.28986902	1.11771375	0.33311737	0.99641089	0.5592804	0.4733963	1.39868835	0.58817444
5	0.04	0.51208606	0.98896136	0.43060135	0.50859482	1.1671084	0.30210349	0.35149261	0.0407619	0.43853787	0.43531766	0.03738458	0.38088278	0.52288147	0.10534382	0.42089194	0.54199219	0.51556201	0.44252927	0.48204675	0.25003838	0.4187319	0.4141073	0.3528107	0.35708826	0.50186984	0.40544553	0.4124339	0.38882825	1.45997717	0.4334556	0.54941089	0.63343353	0.43460837	0.47814255	0.68532239	0.37118463	0.56830872	0.7612395	0.4278111	0.64501947	0.06478452	0.42092618	0.55905731	1.32118091	0.4958461	0.32308078	1.476323	0.56500531	0.49765482	0.97660034	0.69627911	0.29741965	1.22330505	0.97079144	0.32035974	0.03594118	0.53857654	0.40031427	0.02973692	0.60574036	0.49085471	0.09101345	0.56737274	0.52230127	0.49443298	0.62943463	0.45594052	0.21381914	0.59609094	0.40269305	0.34053296	0.67808685	0.48866238	0.38445584	0.63319922	0.34640335	1.45264294	0.71517834	0.53377972	0.60157123	0.64913159	0.45404346	0.65760895	0.71574231	0.54721143	0.71420685	0.67547705	0.61567444	0.0431898	0.57869824	0.50734674	1.29003577	1.11782556	0.33282684	0.9963512	0.5597962	0.47327054	1.39868921	0.58832007
6	0.05	0.51120328	0.98897784	0.430491	0.50827667	1.16722729	0.30216995	0.35746976	0.03953464	0.43987186	0.44116678	0.03723577	0.38144376	0.52833679	0.10586513	0.42106955	0.54444037	0.51629944	0.44263315	0.48639935	0.25026941	0.41904233	0.41753986	0.35251767	0.3575585	0.5050878	0.40584174	0.41254288	0.38846649	1.4599917	0.43371704	0.55054913	0.63407977	0.43472687	0.47888858	0.68542322	0.37129852	0.5685174	0.76184741	0.42801913	0.65077167	0.06624287	0.42074103	0.55885028	1.3212605	0.49589917	0.32286938	1.47630566	0.56527557	0.49807462	0.97653888	0.69624146	0.29745154	1.22317517	0.97096857	0.32034949	0.03593929	0.53860382	0.40033026	0.02970941	0.60572943	0.49085648	0.09099217	0.5673739	0.52295605	0.49420032	0.62940643	0.45595465	0.213605	0.59614807	0.40322018	0.34049536	0.67813525	0.48933856	0.38437411	0.63314728	0.34632993	1.45260425	0.71544244	0.53436096	0.60148071	0.64940088	0.45424863	0.65746997	0.71564081	0.5475188	0.71414154	0.67569788	0.61569196	0.04313132	0.57867767	0.50738858	1.29017859	1.11793188	0.33231522	0.99633722	0.56030182	0.47318069	1.39872205	0.58845905
7	0.06	0.51024503	0.98902557	0.43035339	0.5078476	1.16736951	0.30219861	0.36438171	0.03940945	0.44008627	0.44780066	0.03690017	0.38227457	0.53449316	0.10662383	0.4212164	0.54717316	0.51723315	0.44255295	0.49111154	0.25054747	0.41932904	0.42127051	0.35220804	0.35803326	0.5085864	0.40634012	0.41269409	0.38806171	1.46004858	0.43398291	0.55178583	0.63480286	0.43463513	0.47971469	0.68560266	0.37133405	0.56878204	0.76255634	0.42798932	0.65726776	0.0680313	0.42039124	0.55861792	1.32134094	0.4959198	0.3226539	1.47631543	0.56562567	0.49814227	0.97646423	0.6960589	0.29797195	1.22326587	0.97179865	0.32035696	0.03597882	0.53858051	0.4003443	0.02973626	0.60573889	0.49098026	0.09104008	0.56737561	0.52361731	0.49404919	0.6294209	0.45595792	0.21334337	0.5960827	0.40367877	0.34049594	0.67810858	0.4898714	0.38428159	0.63306921	0.34633313	1.45262732	0.71580499	0.53495502	0.60139185	0.64957849	0.4544823	0.65738483	0.7155426	0.54784167	0.71414636	0.67589398	0.6156908	0.04311351	0.57865552	0.50744769	1.29033203	1.11803259	0.33190262	0.99638196	0.56083826	0.47306021	1.39878845	0.58859607
8	0.07	0.50925662	0.98911963	0.43019119	0.5073656	1.16755383	0.30216214	0.37180829	0.03852458	0.4416687	0.45513394	0.03686826	0.38292786	0.54138141	0.10745961	0.42136227	0.55015637	0.5182251	0.44244324	0.49685226	0.25100941	0.41954346	0.42541714	0.35184323	0.35864026	0.51256946	0.40700317	0.41271143	0.38766354	1.46010693	0.43427817	0.55325848	0.63561096	0.43452301	0.48070197	0.68583527	0.37132376	0.56907166	0.76337378	0.42773801	0.66447888	0.07009242	0.41982834	0.55836908	1.32141821	0.49590527	0.32243866	1.47632947	0.56605457	0.4985083	0.97644513	0.69599982	0.29797272	1.22323572	0.97209467	0.32037659	0.03597742	0.53861212	0.40034543	0.02972719	0.60574323	0.49089536	0.0910173	0.56737585	0.52430725	0.49388293	0.62940863	0.45639755	0.21335829	0.59601154	0.40410873	0.3404834	0.67808539	0.49037793	0.38414386	0.6330105	0.34633466	1.45262097	0.71615558	0.53556519	0.6013222	0.64972668	0.45470139	0.65719489	0.71521228	0.54819177	0.71415021	0.67597626	0.61570062	0.04307204	0.57862469	0.50750079	1.29052087	1.11809729	0.33151202	0.99643414	0.56125671	0.47289209	1.39881824	0.58871228
9	0.08	0.50819025	0.98923132	0.43002161	0.50677713	1.16778186	0.30212958	0.3801955	0.0379395	0.44284616	0.46319495	0.03703948	0.38364783	0.54892767	0.10855733	0.42145248	0.55340582	0.51940216	0.44220386	0.50255759	0.25148653	0.41979172	0.42997107	0.35160724	0.3592348	0.51682257	0.40771411	0.41272461	0.38728561	1.4602218	0.43457263	0.55495062	0.63662665	0.43413824	0.4817326	0.68617419	0.37125153	0.56936371	0.76428662	0.42735016	0.67246619	0.07251355	0.41909167	0.55807776	1.32150525	0.4958898	0.32225842	1.47637146	0.56652325	0.49867136	0.97644684	0.69584979	0.29782388	1.22300549	0.97213965	0.32035718	0.03598992	0.53864191	0.40031833	0.02976088	0.60576337	0.4906644	0.09084724	0.56729193	0.52492352	0.49373322	0.62932324	0.45661804	0.21330595	0.5959895	0.40460321	0.34048267	0.678086	0.49084836	0.38399088	0.63296942	0.34640311	1.45267236	0.71656122	0.53624927	0.60136194	0.64977789	0.45507327	0.65713507	0.71509668	0.54851971	0.71423993	0.67597229	0.61570313	0.04306583	0.57861798	0.50759201	1.2906698	1.11815625	0.33100894	0.99639569	0.56171222	0.47280435	1.39888721	0.58884851
10	0.09	0.50710049	0.98934784	0.42984177	0.50612683	1.16797559	0.30206567	0.38946649	0.03724177	0.44417941	0.47200543	0.0372734	0.3843428	0.55723285	0.10982183	0.42148618	0.55699805	0.52072528	0.44182123	0.50915234	0.25213507	0.41998898	0.43495966	0.3514393	0.35983673	0.52154993	0.4085798	0.41268604	0.3869082	1.46032935	0.4349093	0.55681079	0.63768414	0.43363464	0.48290137	0.68657904	0.37116919	0.56980798	0.7653465	0.42672601	0.68114105	0.07519877	0.41827628	0.55776324	1.32157141	0.49583377	0.32213599	1.47646033	0.56697095	0.49874423	0.97638867	0.69564215	0.29770526	1.22257397	0.97185834	0.32035391	0.03599789	0.53865613	0.40032156	0.02969757	0.60573657	0.49070822	0.09081548	0.56729041	0.5256264	0.49357864	0.62924115	0.45680728	0.21316959	0.59598431	0.40510477	0.34051605	0.67807477	0.49142377	0.38389359	0.63287885	0.3465704	1.45268567	0.71696021	0.53683337	0.60142786	0.64972241	0.45543729	0.65706488	0.71505109	0.54882025	0.71432526	0.6758374	0.61571942	0.04300262	0.5785979	0.50769965	1.29080164	1.11824634	0.33050867	0.9962594	0.56231433	0.47262781	1.3988811	0.58895099
11	0.1	0.50591916	0.98949329	0.4296463	0.50539316	1.16814185	0.30200336	0.39953146	0.03661924	0.44555807	0.48166965	0.03769593	0.38502536	0.56619562	0.11128964	0.42146259	0.56087604	0.5221886	0.44133734	0.51636688	0.25313602	0.42016855	0.44026352	0.35118271	0.36059821	0.52661597	0.4095896	0.41259546	0.38655304	1.46048242	0.43528467	0.55895654	0.6388949	0.4328728	0.48410419	0.68694598	0.37115134	0.57036218	0.76649945	0.42606036	0.69047522	0.07817473	0.41736099	0.55743781	1.32162329	0.49574911	0.322047	1.4765647	0.56737671	0.49886655	0.97638739	0.69543134	0.29782159	1.2224491	0.97213165	0.320341	0.03600071	0.53866003	0.40036877	0.02970734	0.60575806	0.49073611	0.09080332	0.56728033	0.52630182	0.49348596	0.62915887	0.4570311	0.2130502	0.59595691	0.40568176	0.34049698	0.67803479	0.49196078	0.38373114	0.63281281	0.34673114	1.45268835	0.71732532	0.53733789	0.60152393	0.64959637	0.45588068	0.65713086	0.71510168	0.54914355	0.71443646	0.67557977	0.6157453	0.04296472	0.57858032	0.50784363	1.29093298	1.11834692	0.32998459	0.99617236	0.56281427	0.47249667	1.39889258	0.58907739
